<svg width="1440" height="720" viewBox="0 0 1440 720" fill="none" xmlns="http://www.w3.org/2000/svg">
<g clip-path="url(#clip0_6_100)">
<path opacity="0.5" d="M617.598 -258.797C466.683 -482.763 163.153 -542.233 -60.3556 -391.627C-283.864 -241.02 -342.713 62.6308 -191.798 286.597C-40.8826 510.564 262.648 570.034 486.156 419.427C709.664 268.821 768.513 -34.8303 617.598 -258.797Z" fill="url(#paint0_linear_6_100)"/>
</g>
<g clip-path="url(#clip1_6_100)">
<path opacity="0.25" d="M838.932 512.932C1029.9 321.965 1339.2 321.649 1529.78 512.224C1720.35 702.8 1720.03 1012.1 1529.07 1203.07C1338.1 1394.03 1028.8 1394.35 838.225 1203.77C647.649 1013.2 647.965 703.898 838.932 512.932Z" fill="url(#paint1_linear_6_100)"/>
</g>
<defs>
<linearGradient id="paint0_linear_6_100" x1="-185.492" y1="282.349" x2="617.598" y2="-258.797" gradientUnits="userSpaceOnUse">
<stop stop-color="#0989B4" stop-opacity="0"/>
<stop offset="0.9994" stop-color="#53FFEE"/>
</linearGradient>
<linearGradient id="paint1_linear_6_100" x1="1523.69" y1="1197.69" x2="838.932" y2="512.932" gradientUnits="userSpaceOnUse">
<stop stop-color="#0989B4" stop-opacity="0"/>
<stop offset="0.9994" stop-color="#53FFEE"/>
</linearGradient>
<clipPath id="clip0_6_100">
<rect width="978" height="978" fill="white" transform="translate(-173.542 -559.602) rotate(11.0268)"/>
</clipPath>
<clipPath id="clip1_6_100">
<rect width="978" height="978" fill="white" transform="translate(695 369)"/>
</clipPath>
</defs>
</svg>
